<?xml version="1.0" standalone="no"?>
<!DOCTYPE svg PUBLIC "-//W3C//DTD SVG 20010904//EN"
 "http://www.w3.org/TR/2001/REC-SVG-20010904/DTD/svg10.dtd">
<svg version="1.0" xmlns="http://www.w3.org/2000/svg"
 width="3750.000000pt" height="2500.000000pt" viewBox="0 0 3750.000000 2500.000000"
 preserveAspectRatio="xMidYMid meet">

<g transform="translate(0.000000,2500.000000) scale(0.100000,-0.100000)"
fill="#000000" stroke="none">
<path d="M30422 14078 c420 -456 1428 -1570 1428 -1578 0 -8 -1008 -1122
-1428 -1577 l-94 -103 658 0 659 1 760 835 c418 459 760 839 760 844 0 5 -342
385 -760 844 l-760 835 -659 1 -658 0 94 -102z"/>
<path d="M5631 13930 c-485 -61 -923 -358 -1142 -775 -60 -114 -93 -200 -127
-335 -24 -96 -27 -122 -27 -305 0 -183 3 -209 27 -305 72 -284 197 -501 406
-701 266 -255 604 -399 977 -416 489 -21 941 175 1243 540 l62 75 -321 220
-321 221 -57 -67 c-145 -168 -327 -255 -536 -255 -272 -1 -516 152 -635 398
-183 377 25 815 450 946 106 33 264 33 370 0 145 -45 255 -117 359 -236 29
-33 58 -59 63 -57 16 4 623 423 626 432 5 13 -141 181 -210 242 -154 135 -363
255 -544 313 -190 60 -476 88 -663 65z"/>
<path d="M8667 13929 c-195 -17 -367 -67 -547 -160 -334 -173 -586 -466 -704
-820 -51 -152 -70 -269 -70 -439 0 -289 77 -541 241 -788 94 -142 272 -313
429 -414 125 -80 324 -159 494 -195 121 -26 459 -26 577 0 555 122 978 519
1118 1050 223 845 -391 1688 -1285 1767 -125 11 -125 11 -253 -1z m276 -755
c40 -9 110 -34 157 -56 71 -34 100 -55 175 -132 142 -143 198 -278 198 -476 0
-127 -18 -204 -76 -314 -209 -403 -759 -488 -1077 -167 -135 138 -191 263
-198 451 -5 140 11 220 69 336 135 274 451 425 752 358z"/>
<path d="M24062 13928 c-314 -39 -577 -184 -722 -397 -88 -131 -129 -261 -137
-441 -10 -223 44 -392 169 -526 158 -168 367 -264 826 -375 409 -100 518 -151
538 -254 27 -148 -142 -239 -411 -221 -267 18 -509 104 -741 262 -93 64 -97
65 -114 47 -31 -33 -396 -468 -404 -480 -10 -17 26 -48 159 -138 246 -165 548
-272 890 -315 149 -19 422 -14 556 9 547 95 854 414 852 886 -1 438 -275 680
-953 841 -340 81 -438 111 -506 158 -55 37 -74 72 -74 137 0 113 76 170 237
177 209 9 423 -54 678 -201 l60 -35 210 249 c116 137 211 253 213 258 5 14
-200 147 -303 196 -182 88 -391 144 -610 165 -129 12 -310 11 -413 -2z"/>
<path d="M10810 12515 l0 -1345 355 0 355 0 0 752 c0 644 2 750 14 738 8 -8
240 -330 516 -715 277 -385 516 -717 532 -737 l30 -38 404 0 404 0 0 1345 0
1345 -360 0 -360 0 0 -756 0 -756 -577 756 -578 756 -367 0 -368 0 0 -1345z"/>
<path d="M13961 13853 c0 -5 197 -609 437 -1343 l437 -1335 583 -3 582 -2 10
22 c12 26 870 2653 870 2662 0 3 -184 6 -410 6 l-409 0 -50 -157 c-27 -87
-163 -520 -301 -963 -139 -443 -253 -806 -254 -806 -11 -11 -46 -11 -60 -1
-12 9 -111 312 -315 968 l-298 954 -411 3 c-227 1 -412 -1 -411 -5z"/>
<path d="M17400 12515 l0 -1345 1073 2 1072 3 3 358 2 357 -720 0 -720 0 0
160 0 160 645 0 645 0 0 325 0 325 -645 0 -645 0 0 140 0 140 718 2 717 3 3
358 2 357 -1075 0 -1075 0 0 -1345z"/>
<path d="M20300 12516 l0 -1346 355 0 355 0 0 485 0 485 174 0 c96 0 187 -5
201 -10 23 -9 63 -83 261 -485 l234 -475 400 0 c220 0 400 3 400 6 0 4 -123
251 -274 550 l-274 544 56 37 c70 46 177 151 221 216 224 330 192 763 -77
1049 -118 125 -270 214 -443 260 -82 21 -98 22 -836 25 l-753 4 0 -1345z
m1437 603 c42 -26 63 -66 63 -119 0 -55 -26 -96 -75 -120 -39 -19 -63 -20
-373 -20 l-332 0 0 140 0 140 341 0 c329 0 343 -1 376 -21z"/>
<path d="M26100 12515 l0 -1345 1073 2 1072 3 3 358 2 357 -715 0 -715 0 0
160 0 160 643 2 642 3 0 320 0 320 -642 3 -643 2 0 140 0 140 713 2 712 3 3
358 2 357 -1075 0 -1075 0 0 -1345z"/>
<path d="M30086 13169 c-109 -156 -202 -287 -206 -292 -3 -4 -158 43 -344 103
-187 61 -340 109 -342 107 -2 -2 91 -132 206 -290 116 -158 210 -292 210 -297
0 -5 -92 -137 -205 -293 -113 -157 -205 -287 -205 -290 0 -2 149 45 332 104
183 60 336 109 339 109 4 0 99 -131 211 -292 l203 -292 3 365 2 364 323 104
c177 57 333 108 347 113 20 7 -30 27 -320 123 l-345 114 -5 362 -5 362 -199
-284z"/>
</g>
</svg>
